<?xml version="1.0" standalone="no"?>
<!DOCTYPE svg PUBLIC "-//W3C//DTD SVG 20010904//EN"
 "http://www.w3.org/TR/2001/REC-SVG-20010904/DTD/svg10.dtd">
<svg version="1.0" xmlns="http://www.w3.org/2000/svg"
 width="700.000000pt" height="700.000000pt" viewBox="0 0 700.000000 700.000000"
 preserveAspectRatio="xMidYMid meet">
<metadata>
Created by potrace 1.11, written by Peter Selinger 2001-2013
</metadata>
<g transform="translate(0.000000,700.000000) scale(0.100000,-0.100000)"
fill="#000000" stroke="none">
<path d="M619 6467 c-24 -13 -57 -43 -74 -66 l-30 -43 0 -346 c0 -384 -2 -369
69 -433 26 -24 101 -49 145 -49 29 0 97 -67 116 -112 16 -40 17 -166 17 -1988
0 -1825 -1 -1948 -17 -1988 -20 -49 -75 -87 -140 -95 -104 -14 -174 -77 -189
-167 -8 -50 -8 -609 0 -647 9 -46 67 -109 117 -127 38 -15 302 -16 2937 -14
2741 3 2897 4 2927 21 18 9 44 30 58 45 47 50 52 91 50 427 -1 343 -3 357 -68
411 -37 31 -60 41 -118 49 -75 11 -140 68 -158 140 -15 60 -15 3859 0 3925 16
72 74 118 158 125 75 7 153 70 172 138 7 27 12 154 12 357 1 303 1 317 -20
355 -23 45 -61 76 -112 93 -26 9 -732 12 -2921 12 l-2887 0 -44 -23z m2060
-956 c77 -40 84 -68 85 -370 l2 -234 -69 74 c-159 171 -286 343 -282 384 7 73
35 114 100 148 42 22 118 21 164 -2z m1909 5 c38 -20 78 -65 96 -108 14 -33
16 -164 16 -1118 0 -594 -3 -1080 -6 -1080 -3 0 -68 48 -145 108 -77 59 -161
123 -187 143 l-47 36 0 939 0 939 23 47 c21 43 65 87 102 101 29 11 121 7 148
-7z m-2107 -1891 c14 -11 41 -31 59 -45 95 -70 206 -163 215 -178 6 -12 10
-350 9 -963 0 -889 -1 -946 -18 -979 -10 -19 -28 -46 -40 -58 -81 -90 -217
-59 -275 63 -13 26 -15 190 -17 1110 0 594 1 1084 3 1088 5 8 10 5 64 -38z
m1910 -1697 c35 -40 80 -91 100 -113 62 -69 158 -194 185 -241 21 -36 25 -52
19 -82 -22 -120 -155 -177 -282 -122 -43 18 -56 30 -75 68 -21 44 -22 59 -23
304 0 142 2 258 5 258 4 0 35 -32 71 -72z"/>
</g>
</svg>
